<svg width="200" height="200" viewBox="0 0 200 200" fill="none" xmlns="http://www.w3.org/2000/svg">
<path fill-rule="evenodd" clip-rule="evenodd" d="M200 100C200 44.7722 155.228 0 100 0C44.7722 0 0 44.7722 0 100C0 155.231 44.7722 200 100 200C155.228 200 200 155.231 200 100ZM81.7988 44.4444C81.0126 45.9874 81.0126 48.0072 81.0126 52.047V74.9426C81.0126 75.9517 81.0126 76.4562 81.14 76.9227C81.2529 77.336 81.4385 77.7259 81.6881 78.0741C81.9698 78.4671 82.3614 78.7852 83.1446 79.4214L88.9362 84.1262C89.8802 84.8931 90.3522 85.2765 90.5236 85.7381C90.6739 86.143 90.6739 86.5883 90.5236 86.9932C90.3522 87.4548 89.8802 87.8383 88.9362 88.6051L83.1447 93.3098C82.3615 93.9461 81.9698 94.2642 81.6881 94.6572C81.4385 95.0054 81.2529 95.3953 81.14 95.8086C81.0126 96.2751 81.0126 96.7796 81.0126 97.7887V147.952C81.0126 151.992 81.0126 154.012 81.7988 155.555C82.4903 156.912 83.5938 158.016 84.951 158.707C86.494 159.493 88.5139 159.493 92.5536 159.493H107.446C111.486 159.493 113.506 159.493 115.049 158.707C116.406 158.016 117.51 156.912 118.201 155.555C118.987 154.012 118.987 151.992 118.987 147.952V125.057C118.987 124.048 118.987 123.543 118.86 123.077C118.747 122.663 118.561 122.273 118.312 121.925C118.03 121.532 117.638 121.214 116.855 120.578L111.064 115.873C110.12 115.106 109.648 114.723 109.476 114.261C109.326 113.856 109.326 113.411 109.476 113.006C109.648 112.544 110.12 112.161 111.064 111.394L116.855 106.689C117.638 106.053 118.03 105.735 118.312 105.342C118.561 104.994 118.747 104.604 118.86 104.191C118.987 103.724 118.987 103.22 118.987 102.211V52.047C118.987 48.0072 118.987 45.9874 118.201 44.4444C117.51 43.0872 116.406 41.9837 115.049 41.2921C113.506 40.506 111.486 40.506 107.446 40.506H92.5536C88.5139 40.506 86.494 40.506 84.951 41.2921C83.5938 41.9837 82.4903 43.0872 81.7988 44.4444Z" fill="#303136"/>
</svg>
